<mxfile host="65bd71144e">
    <diagram name="Seite-1" id="6BgWs389JJTcCeiWw3PB">
        <mxGraphModel dx="1873" dy="417" grid="1" gridSize="10" guides="1" tooltips="1" connect="1" arrows="1" fold="1" page="1" pageScale="1" pageWidth="827" pageHeight="1169" math="0" shadow="0">
            <root>
                <mxCell id="0"/>
                <mxCell id="1" parent="0"/>
                <mxCell id="2" value="User" style="swimlane;fontStyle=1;align=center;verticalAlign=top;childLayout=stackLayout;horizontal=1;startSize=25.066666666666666;horizontalStack=0;resizeParent=1;resizeParentMax=0;resizeLast=0;collapsible=0;marginBottom=0;comic=1;" parent="1" vertex="1">
                    <mxGeometry x="324" y="65.91" width="180" height="375.06666666666666" as="geometry"/>
                </mxCell>
                <mxCell id="3" value="+int Id" style="text;strokeColor=none;fillColor=none;align=left;verticalAlign=top;spacingLeft=4;spacingRight=4;overflow=hidden;rotatable=0;points=[[0,0.5],[1,0.5]];portConstraint=eastwest;comic=1;" parent="2" vertex="1">
                    <mxGeometry y="25.066666666666666" width="180" height="25" as="geometry"/>
                </mxCell>
                <mxCell id="4" value="string Name" style="text;strokeColor=none;fillColor=none;align=left;verticalAlign=top;spacingLeft=4;spacingRight=4;overflow=hidden;rotatable=0;points=[[0,0.5],[1,0.5]];portConstraint=eastwest;comic=1;" parent="2" vertex="1">
                    <mxGeometry y="50.06666666666666" width="180" height="25" as="geometry"/>
                </mxCell>
                <mxCell id="5" value="string Email" style="text;strokeColor=none;fillColor=none;align=left;verticalAlign=top;spacingLeft=4;spacingRight=4;overflow=hidden;rotatable=0;points=[[0,0.5],[1,0.5]];portConstraint=eastwest;comic=1;" parent="2" vertex="1">
                    <mxGeometry y="75.06666666666666" width="180" height="25" as="geometry"/>
                </mxCell>
                <mxCell id="6" value="timestamp Email Verified At" style="text;strokeColor=none;fillColor=none;align=left;verticalAlign=top;spacingLeft=4;spacingRight=4;overflow=hidden;rotatable=0;points=[[0,0.5],[1,0.5]];portConstraint=eastwest;comic=1;" parent="2" vertex="1">
                    <mxGeometry y="100.06666666666666" width="180" height="25" as="geometry"/>
                </mxCell>
                <mxCell id="7" value="string Password" style="text;strokeColor=none;fillColor=none;align=left;verticalAlign=top;spacingLeft=4;spacingRight=4;overflow=hidden;rotatable=0;points=[[0,0.5],[1,0.5]];portConstraint=eastwest;comic=1;" parent="2" vertex="1">
                    <mxGeometry y="125.06666666666666" width="180" height="25" as="geometry"/>
                </mxCell>
                <mxCell id="8" value="string rememberToken" style="text;strokeColor=none;fillColor=none;align=left;verticalAlign=top;spacingLeft=4;spacingRight=4;overflow=hidden;rotatable=0;points=[[0,0.5],[1,0.5]];portConstraint=eastwest;comic=1;" parent="2" vertex="1">
                    <mxGeometry y="150.06666666666666" width="180" height="25" as="geometry"/>
                </mxCell>
                <mxCell id="9" value="timestamp CreatedAt" style="text;strokeColor=none;fillColor=none;align=left;verticalAlign=top;spacingLeft=4;spacingRight=4;overflow=hidden;rotatable=0;points=[[0,0.5],[1,0.5]];portConstraint=eastwest;comic=1;" parent="2" vertex="1">
                    <mxGeometry y="175.06666666666666" width="180" height="25" as="geometry"/>
                </mxCell>
                <mxCell id="110" value="timestamp UpdatedAt" style="text;strokeColor=none;fillColor=none;align=left;verticalAlign=top;spacingLeft=4;spacingRight=4;overflow=hidden;rotatable=0;points=[[0,0.5],[1,0.5]];portConstraint=eastwest;comic=1;" parent="2" vertex="1">
                    <mxGeometry y="200.06666666666666" width="180" height="25" as="geometry"/>
                </mxCell>
                <mxCell id="111" value="string FirstName" style="text;strokeColor=none;fillColor=none;align=left;verticalAlign=top;spacingLeft=4;spacingRight=4;overflow=hidden;rotatable=0;points=[[0,0.5],[1,0.5]];portConstraint=eastwest;comic=1;" parent="2" vertex="1">
                    <mxGeometry y="225.06666666666666" width="180" height="25" as="geometry"/>
                </mxCell>
                <mxCell id="112" value="string LastName" style="text;strokeColor=none;fillColor=none;align=left;verticalAlign=top;spacingLeft=4;spacingRight=4;overflow=hidden;rotatable=0;points=[[0,0.5],[1,0.5]];portConstraint=eastwest;comic=1;" parent="2" vertex="1">
                    <mxGeometry y="250.06666666666666" width="180" height="25" as="geometry"/>
                </mxCell>
                <mxCell id="140" value="string PhoneNumber" style="text;strokeColor=none;fillColor=none;align=left;verticalAlign=top;spacingLeft=4;spacingRight=4;overflow=hidden;rotatable=0;points=[[0,0.5],[1,0.5]];portConstraint=eastwest;comic=1;" parent="2" vertex="1">
                    <mxGeometry y="275.06666666666666" width="180" height="25" as="geometry"/>
                </mxCell>
                <mxCell id="113" value="string Note" style="text;strokeColor=none;fillColor=none;align=left;verticalAlign=top;spacingLeft=4;spacingRight=4;overflow=hidden;rotatable=0;points=[[0,0.5],[1,0.5]];portConstraint=eastwest;comic=1;" parent="2" vertex="1">
                    <mxGeometry y="300.06666666666666" width="180" height="25" as="geometry"/>
                </mxCell>
                <mxCell id="209" value="timestamp CreatedAt" style="text;strokeColor=none;fillColor=none;align=left;verticalAlign=top;spacingLeft=4;spacingRight=4;overflow=hidden;rotatable=0;points=[[0,0.5],[1,0.5]];portConstraint=eastwest;comic=1;" parent="2" vertex="1">
                    <mxGeometry y="325.06666666666666" width="180" height="25" as="geometry"/>
                </mxCell>
                <mxCell id="210" value="timestamp UpdatedAt" style="text;strokeColor=none;fillColor=none;align=left;verticalAlign=top;spacingLeft=4;spacingRight=4;overflow=hidden;rotatable=0;points=[[0,0.5],[1,0.5]];portConstraint=eastwest;comic=1;" parent="2" vertex="1">
                    <mxGeometry y="350.06666666666666" width="180" height="25" as="geometry"/>
                </mxCell>
                <mxCell id="10" value="Location" style="swimlane;fontStyle=1;align=center;verticalAlign=top;childLayout=stackLayout;horizontal=1;startSize=25.384615384615383;horizontalStack=0;resizeParent=1;resizeParentMax=0;resizeLast=0;collapsible=0;marginBottom=0;comic=1;" parent="1" vertex="1">
                    <mxGeometry x="-325.5" y="240" width="155.5" height="200.3846153846154" as="geometry"/>
                </mxCell>
                <mxCell id="11" value="+int Id" style="text;strokeColor=none;fillColor=none;align=left;verticalAlign=top;spacingLeft=4;spacingRight=4;overflow=hidden;rotatable=0;points=[[0,0.5],[1,0.5]];portConstraint=eastwest;comic=1;" parent="10" vertex="1">
                    <mxGeometry y="25.384615384615383" width="155.5" height="25" as="geometry"/>
                </mxCell>
                <mxCell id="12" value="string Name" style="text;strokeColor=none;fillColor=none;align=left;verticalAlign=top;spacingLeft=4;spacingRight=4;overflow=hidden;rotatable=0;points=[[0,0.5],[1,0.5]];portConstraint=eastwest;comic=1;" parent="10" vertex="1">
                    <mxGeometry y="50.38461538461539" width="155.5" height="25" as="geometry"/>
                </mxCell>
                <mxCell id="13" value="string Address" style="text;strokeColor=none;fillColor=none;align=left;verticalAlign=top;spacingLeft=4;spacingRight=4;overflow=hidden;rotatable=0;points=[[0,0.5],[1,0.5]];portConstraint=eastwest;comic=1;" parent="10" vertex="1">
                    <mxGeometry y="75.38461538461539" width="155.5" height="25" as="geometry"/>
                </mxCell>
                <mxCell id="14" value="string PhoneNumber" style="text;strokeColor=none;fillColor=none;align=left;verticalAlign=top;spacingLeft=4;spacingRight=4;overflow=hidden;rotatable=0;points=[[0,0.5],[1,0.5]];portConstraint=eastwest;comic=1;" parent="10" vertex="1">
                    <mxGeometry y="100.38461538461539" width="155.5" height="25" as="geometry"/>
                </mxCell>
                <mxCell id="15" value="string EMail" style="text;strokeColor=none;fillColor=none;align=left;verticalAlign=top;spacingLeft=4;spacingRight=4;overflow=hidden;rotatable=0;points=[[0,0.5],[1,0.5]];portConstraint=eastwest;comic=1;" parent="10" vertex="1">
                    <mxGeometry y="125.38461538461539" width="155.5" height="25" as="geometry"/>
                </mxCell>
                <mxCell id="201" value="timestamp CreatedAt" style="text;strokeColor=none;fillColor=none;align=left;verticalAlign=top;spacingLeft=4;spacingRight=4;overflow=hidden;rotatable=0;points=[[0,0.5],[1,0.5]];portConstraint=eastwest;comic=1;" parent="10" vertex="1">
                    <mxGeometry y="150.3846153846154" width="155.5" height="25" as="geometry"/>
                </mxCell>
                <mxCell id="203" value="timestamp UpdatedAt" style="text;strokeColor=none;fillColor=none;align=left;verticalAlign=top;spacingLeft=4;spacingRight=4;overflow=hidden;rotatable=0;points=[[0,0.5],[1,0.5]];portConstraint=eastwest;comic=1;" parent="10" vertex="1">
                    <mxGeometry y="175.3846153846154" width="155.5" height="25" as="geometry"/>
                </mxCell>
                <mxCell id="17" value="Appointment" style="swimlane;fontStyle=1;align=center;verticalAlign=top;childLayout=stackLayout;horizontal=1;startSize=25.818181818181817;horizontalStack=0;resizeParent=1;resizeParentMax=0;resizeLast=0;collapsible=0;marginBottom=0;comic=1;" parent="1" vertex="1">
                    <mxGeometry x="-40" y="209.16000000000003" width="159" height="231.8181818181818" as="geometry"/>
                </mxCell>
                <mxCell id="18" value="+int Id" style="text;strokeColor=none;fillColor=none;align=left;verticalAlign=top;spacingLeft=4;spacingRight=4;overflow=hidden;rotatable=0;points=[[0,0.5],[1,0.5]];portConstraint=eastwest;comic=1;" parent="17" vertex="1">
                    <mxGeometry y="25.818181818181817" width="159" height="26" as="geometry"/>
                </mxCell>
                <mxCell id="213" value="int UserId" style="text;strokeColor=none;fillColor=none;align=left;verticalAlign=top;spacingLeft=4;spacingRight=4;overflow=hidden;rotatable=0;points=[[0,0.5],[1,0.5]];portConstraint=eastwest;comic=1;" parent="17" vertex="1">
                    <mxGeometry y="51.81818181818181" width="159" height="26" as="geometry"/>
                </mxCell>
                <mxCell id="19" value="DateTime StartTime" style="text;strokeColor=none;fillColor=none;align=left;verticalAlign=top;spacingLeft=4;spacingRight=4;overflow=hidden;rotatable=0;points=[[0,0.5],[1,0.5]];portConstraint=eastwest;comic=1;" parent="17" vertex="1">
                    <mxGeometry y="77.81818181818181" width="159" height="26" as="geometry"/>
                </mxCell>
                <mxCell id="20" value="DateTime EndTime" style="text;strokeColor=none;fillColor=none;align=left;verticalAlign=top;spacingLeft=4;spacingRight=4;overflow=hidden;rotatable=0;points=[[0,0.5],[1,0.5]];portConstraint=eastwest;comic=1;" parent="17" vertex="1">
                    <mxGeometry y="103.81818181818181" width="159" height="26" as="geometry"/>
                </mxCell>
                <mxCell id="21" value="Int LocationId" style="text;strokeColor=none;fillColor=none;align=left;verticalAlign=top;spacingLeft=4;spacingRight=4;overflow=hidden;rotatable=0;points=[[0,0.5],[1,0.5]];portConstraint=eastwest;comic=1;" parent="17" vertex="1">
                    <mxGeometry y="129.8181818181818" width="159" height="26" as="geometry"/>
                </mxCell>
                <mxCell id="38" value="string Note" style="text;strokeColor=none;fillColor=none;align=left;verticalAlign=top;spacingLeft=4;spacingRight=4;overflow=hidden;rotatable=0;points=[[0,0.5],[1,0.5]];portConstraint=eastwest;comic=1;" parent="17" vertex="1">
                    <mxGeometry y="155.8181818181818" width="159" height="26" as="geometry"/>
                </mxCell>
                <mxCell id="204" value="timestamp CreatedAt" style="text;strokeColor=none;fillColor=none;align=left;verticalAlign=top;spacingLeft=4;spacingRight=4;overflow=hidden;rotatable=0;points=[[0,0.5],[1,0.5]];portConstraint=eastwest;comic=1;" parent="17" vertex="1">
                    <mxGeometry y="181.8181818181818" width="159" height="25" as="geometry"/>
                </mxCell>
                <mxCell id="202" value="timestamp UpdatedAt" style="text;strokeColor=none;fillColor=none;align=left;verticalAlign=top;spacingLeft=4;spacingRight=4;overflow=hidden;rotatable=0;points=[[0,0.5],[1,0.5]];portConstraint=eastwest;comic=1;" parent="17" vertex="1">
                    <mxGeometry y="206.8181818181818" width="159" height="25" as="geometry"/>
                </mxCell>
                <mxCell id="33" value="Device" style="swimlane;fontStyle=1;align=center;verticalAlign=top;childLayout=stackLayout;horizontal=1;startSize=25.818181818181817;horizontalStack=0;resizeParent=1;resizeParentMax=0;resizeLast=0;collapsible=0;marginBottom=0;comic=1;" parent="1" vertex="1">
                    <mxGeometry x="324" y="490" width="186" height="257.8181818181818" as="geometry"/>
                </mxCell>
                <mxCell id="34" value="+int Id" style="text;strokeColor=none;fillColor=none;align=left;verticalAlign=top;spacingLeft=4;spacingRight=4;overflow=hidden;rotatable=0;points=[[0,0.5],[1,0.5]];portConstraint=eastwest;comic=1;" parent="33" vertex="1">
                    <mxGeometry y="25.818181818181817" width="186" height="26" as="geometry"/>
                </mxCell>
                <mxCell id="35" value="string KindProduct" style="text;strokeColor=none;fillColor=none;align=left;verticalAlign=top;spacingLeft=4;spacingRight=4;overflow=hidden;rotatable=0;points=[[0,0.5],[1,0.5]];portConstraint=eastwest;comic=1;" parent="33" vertex="1">
                    <mxGeometry y="51.81818181818181" width="186" height="26" as="geometry"/>
                </mxCell>
                <mxCell id="36" value="string Categorie" style="text;strokeColor=none;fillColor=none;align=left;verticalAlign=top;spacingLeft=4;spacingRight=4;overflow=hidden;rotatable=0;points=[[0,0.5],[1,0.5]];portConstraint=eastwest;comic=1;" parent="33" vertex="1">
                    <mxGeometry y="77.81818181818181" width="186" height="26" as="geometry"/>
                </mxCell>
                <mxCell id="37" value="string Brand" style="text;strokeColor=none;fillColor=none;align=left;verticalAlign=top;spacingLeft=4;spacingRight=4;overflow=hidden;rotatable=0;points=[[0,0.5],[1,0.5]];portConstraint=eastwest;comic=1;" parent="33" vertex="1">
                    <mxGeometry y="103.81818181818181" width="186" height="26" as="geometry"/>
                </mxCell>
                <mxCell id="40" value="string Model" style="text;strokeColor=none;fillColor=none;align=left;verticalAlign=top;spacingLeft=4;spacingRight=4;overflow=hidden;rotatable=0;points=[[0,0.5],[1,0.5]];portConstraint=eastwest;comic=1;" parent="33" vertex="1">
                    <mxGeometry y="129.8181818181818" width="186" height="26" as="geometry"/>
                </mxCell>
                <mxCell id="39" value="string ProductBuildYear" style="text;strokeColor=none;fillColor=none;align=left;verticalAlign=top;spacingLeft=4;spacingRight=4;overflow=hidden;rotatable=0;points=[[0,0.5],[1,0.5]];portConstraint=eastwest;comic=1;" parent="33" vertex="1">
                    <mxGeometry y="155.8181818181818" width="186" height="26" as="geometry"/>
                </mxCell>
                <mxCell id="41" value="string CauseOfFault" style="text;strokeColor=none;fillColor=none;align=left;verticalAlign=top;spacingLeft=4;spacingRight=4;overflow=hidden;rotatable=0;points=[[0,0.5],[1,0.5]];portConstraint=eastwest;comic=1;" parent="33" vertex="1">
                    <mxGeometry y="181.8181818181818" width="186" height="26" as="geometry"/>
                </mxCell>
                <mxCell id="208" value="timestamp CreatedAt" style="text;strokeColor=none;fillColor=none;align=left;verticalAlign=top;spacingLeft=4;spacingRight=4;overflow=hidden;rotatable=0;points=[[0,0.5],[1,0.5]];portConstraint=eastwest;comic=1;" parent="33" vertex="1">
                    <mxGeometry y="207.8181818181818" width="186" height="25" as="geometry"/>
                </mxCell>
                <mxCell id="206" value="timestamp UpdatedAt" style="text;strokeColor=none;fillColor=none;align=left;verticalAlign=top;spacingLeft=4;spacingRight=4;overflow=hidden;rotatable=0;points=[[0,0.5],[1,0.5]];portConstraint=eastwest;comic=1;" parent="33" vertex="1">
                    <mxGeometry y="232.8181818181818" width="186" height="25" as="geometry"/>
                </mxCell>
                <mxCell id="47" value="AppointmentDevice&#10;Assignment" style="swimlane;fontStyle=1;align=center;verticalAlign=top;childLayout=stackLayout;horizontal=1;startSize=40;horizontalStack=0;resizeParent=1;resizeParentMax=0;resizeLast=0;collapsible=0;marginBottom=0;comic=1;" parent="1" vertex="1">
                    <mxGeometry x="-40" y="520" width="159" height="92" as="geometry"/>
                </mxCell>
                <mxCell id="49" value="+int DeviceId" style="text;strokeColor=none;fillColor=none;align=left;verticalAlign=top;spacingLeft=4;spacingRight=4;overflow=hidden;rotatable=0;points=[[0,0.5],[1,0.5]];portConstraint=eastwest;comic=1;" parent="47" vertex="1">
                    <mxGeometry y="40" width="159" height="26" as="geometry"/>
                </mxCell>
                <mxCell id="48" value="int AppointmentId" style="text;strokeColor=none;fillColor=none;align=left;verticalAlign=top;spacingLeft=4;spacingRight=4;overflow=hidden;rotatable=0;points=[[0,0.5],[1,0.5]];portConstraint=eastwest;comic=1;" parent="47" vertex="1">
                    <mxGeometry y="66" width="159" height="26" as="geometry"/>
                </mxCell>
                <mxCell id="52" style="edgeStyle=entityRelationEdgeStyle;html=1;exitX=1;exitY=0.5;exitDx=0;exitDy=0;entryX=0;entryY=0.5;entryDx=0;entryDy=0;endArrow=diamond;endFill=0;startArrow=oval;startFill=1;comic=1;" parent="1" source="49" target="34" edge="1">
                    <mxGeometry relative="1" as="geometry"/>
                </mxCell>
                <mxCell id="53" style="edgeStyle=entityRelationEdgeStyle;html=1;exitX=1;exitY=0.5;exitDx=0;exitDy=0;startArrow=diamond;startFill=0;endArrow=oval;endFill=1;comic=1;" parent="1" source="18" target="48" edge="1">
                    <mxGeometry relative="1" as="geometry"/>
                </mxCell>
                <mxCell id="129" value="Role" style="swimlane;fontStyle=1;align=center;verticalAlign=top;childLayout=stackLayout;horizontal=1;startSize=25.818181818181817;horizontalStack=0;resizeParent=1;resizeParentMax=0;resizeLast=0;collapsible=0;marginBottom=0;comic=1;" parent="1" vertex="1">
                    <mxGeometry x="-330" y="60" width="159" height="153.8181818181818" as="geometry"/>
                </mxCell>
                <mxCell id="130" value="+int Id" style="text;strokeColor=none;fillColor=none;align=left;verticalAlign=top;spacingLeft=4;spacingRight=4;overflow=hidden;rotatable=0;points=[[0,0.5],[1,0.5]];portConstraint=eastwest;comic=1;" parent="129" vertex="1">
                    <mxGeometry y="25.818181818181817" width="159" height="26" as="geometry"/>
                </mxCell>
                <mxCell id="131" value="string Name" style="text;strokeColor=none;fillColor=none;align=left;verticalAlign=top;spacingLeft=4;spacingRight=4;overflow=hidden;rotatable=0;points=[[0,0.5],[1,0.5]];portConstraint=eastwest;comic=1;" parent="129" vertex="1">
                    <mxGeometry y="51.81818181818181" width="159" height="26" as="geometry"/>
                </mxCell>
                <mxCell id="132" value="string Description" style="text;strokeColor=none;fillColor=none;align=left;verticalAlign=top;spacingLeft=4;spacingRight=4;overflow=hidden;rotatable=0;points=[[0,0.5],[1,0.5]];portConstraint=eastwest;comic=1;" parent="129" vertex="1">
                    <mxGeometry y="77.81818181818181" width="159" height="26" as="geometry"/>
                </mxCell>
                <mxCell id="211" value="timestamp CreatedAt" style="text;strokeColor=none;fillColor=none;align=left;verticalAlign=top;spacingLeft=4;spacingRight=4;overflow=hidden;rotatable=0;points=[[0,0.5],[1,0.5]];portConstraint=eastwest;comic=1;" parent="129" vertex="1">
                    <mxGeometry y="103.81818181818181" width="159" height="25" as="geometry"/>
                </mxCell>
                <mxCell id="212" value="timestamp UpdatedAt" style="text;strokeColor=none;fillColor=none;align=left;verticalAlign=top;spacingLeft=4;spacingRight=4;overflow=hidden;rotatable=0;points=[[0,0.5],[1,0.5]];portConstraint=eastwest;comic=1;" parent="129" vertex="1">
                    <mxGeometry y="128.8181818181818" width="159" height="25" as="geometry"/>
                </mxCell>
                <mxCell id="135" value="RoleUser&#10;Assignment" style="swimlane;fontStyle=1;align=center;verticalAlign=top;childLayout=stackLayout;horizontal=1;startSize=40;horizontalStack=0;resizeParent=1;resizeParentMax=0;resizeLast=0;collapsible=0;marginBottom=0;comic=1;" parent="1" vertex="1">
                    <mxGeometry x="-40" y="65.91" width="159" height="92" as="geometry"/>
                </mxCell>
                <mxCell id="136" value="+int UserId" style="text;strokeColor=none;fillColor=none;align=left;verticalAlign=top;spacingLeft=4;spacingRight=4;overflow=hidden;rotatable=0;points=[[0,0.5],[1,0.5]];portConstraint=eastwest;comic=1;" parent="135" vertex="1">
                    <mxGeometry y="40" width="159" height="26" as="geometry"/>
                </mxCell>
                <mxCell id="137" value="+int RoleId" style="text;strokeColor=none;fillColor=none;align=left;verticalAlign=top;spacingLeft=4;spacingRight=4;overflow=hidden;rotatable=0;points=[[0,0.5],[1,0.5]];portConstraint=eastwest;comic=1;" parent="135" vertex="1">
                    <mxGeometry y="66" width="159" height="26" as="geometry"/>
                </mxCell>
                <mxCell id="138" style="edgeStyle=entityRelationEdgeStyle;html=1;exitX=1;exitY=0.5;exitDx=0;exitDy=0;entryX=0;entryY=0.5;entryDx=0;entryDy=0;endArrow=diamond;endFill=0;startArrow=oval;startFill=1;comic=1;" parent="1" source="136" target="3" edge="1">
                    <mxGeometry relative="1" as="geometry"/>
                </mxCell>
                <mxCell id="139" style="edgeStyle=entityRelationEdgeStyle;html=1;exitX=0;exitY=0.5;exitDx=0;exitDy=0;entryX=1;entryY=0.5;entryDx=0;entryDy=0;startArrow=oval;startFill=1;endArrow=diamond;endFill=0;comic=1;" parent="1" source="137" target="130" edge="1">
                    <mxGeometry relative="1" as="geometry"/>
                </mxCell>
                <mxCell id="141" style="edgeStyle=entityRelationEdgeStyle;html=1;exitX=1;exitY=0.5;exitDx=0;exitDy=0;startArrow=oval;startFill=1;endArrow=diamond;endFill=0;entryX=0;entryY=0.5;entryDx=0;entryDy=0;comic=1;" parent="1" source="213" target="3" edge="1">
                    <mxGeometry relative="1" as="geometry">
                        <mxPoint x="320" y="103" as="targetPoint"/>
                        <mxPoint x="119" y="303" as="sourcePoint"/>
                    </mxGeometry>
                </mxCell>
                <mxCell id="182" style="edgeStyle=elbowEdgeStyle;html=1;exitX=1;exitY=0.5;exitDx=0;exitDy=0;startArrow=diamond;startFill=0;endArrow=oval;endFill=1;comic=1;sourcePortConstraint=west;targetPortConstraint=west;orthogonalLoop=0;anchorPointDirection=1;arcSize=20;jumpStyle=none;entryX=0;entryY=0.5;entryDx=0;entryDy=0;" parent="1" source="11" target="21" edge="1">
                    <mxGeometry relative="1" as="geometry">
                        <Array as="points">
                            <mxPoint x="-110" y="320"/>
                        </Array>
                    </mxGeometry>
                </mxCell>
                <mxCell id="183" value="RepairDetails" style="swimlane;fontStyle=1;align=center;verticalAlign=top;childLayout=stackLayout;horizontal=1;startSize=25.818181818181817;horizontalStack=0;resizeParent=1;resizeParentMax=0;resizeLast=0;collapsible=0;marginBottom=0;comic=1;" parent="1" vertex="1">
                    <mxGeometry x="610" y="342" width="186" height="361.8181818181818" as="geometry"/>
                </mxCell>
                <mxCell id="184" value="+int Id" style="text;strokeColor=none;fillColor=none;align=left;verticalAlign=top;spacingLeft=4;spacingRight=4;overflow=hidden;rotatable=0;points=[[0,0.5],[1,0.5]];portConstraint=eastwest;comic=1;" parent="183" vertex="1">
                    <mxGeometry y="25.818181818181817" width="186" height="26" as="geometry"/>
                </mxCell>
                <mxCell id="185" value="string RepairerId" style="text;strokeColor=none;fillColor=none;align=left;verticalAlign=top;spacingLeft=4;spacingRight=4;overflow=hidden;rotatable=0;points=[[0,0.5],[1,0.5]];portConstraint=eastwest;comic=1;" parent="183" vertex="1">
                    <mxGeometry y="51.81818181818181" width="186" height="26" as="geometry"/>
                </mxCell>
                <mxCell id="186" value="int DeviceId" style="text;strokeColor=none;fillColor=none;align=left;verticalAlign=top;spacingLeft=4;spacingRight=4;overflow=hidden;rotatable=0;points=[[0,0.5],[1,0.5]];portConstraint=eastwest;comic=1;" parent="183" vertex="1">
                    <mxGeometry y="77.81818181818181" width="186" height="26" as="geometry"/>
                </mxCell>
                <mxCell id="188" value="string RepairDate" style="text;strokeColor=none;fillColor=none;align=left;verticalAlign=top;spacingLeft=4;spacingRight=4;overflow=hidden;rotatable=0;points=[[0,0.5],[1,0.5]];portConstraint=eastwest;comic=1;" parent="183" vertex="1">
                    <mxGeometry y="103.81818181818181" width="186" height="26" as="geometry"/>
                </mxCell>
                <mxCell id="189" value="string Fault" style="text;strokeColor=none;fillColor=none;align=left;verticalAlign=top;spacingLeft=4;spacingRight=4;overflow=hidden;rotatable=0;points=[[0,0.5],[1,0.5]];portConstraint=eastwest;comic=1;" parent="183" vertex="1">
                    <mxGeometry y="129.8181818181818" width="186" height="26" as="geometry"/>
                </mxCell>
                <mxCell id="190" value="string Solution" style="text;strokeColor=none;fillColor=none;align=left;verticalAlign=top;spacingLeft=4;spacingRight=4;overflow=hidden;rotatable=0;points=[[0,0.5],[1,0.5]];portConstraint=eastwest;comic=1;" parent="183" vertex="1">
                    <mxGeometry y="155.8181818181818" width="186" height="26" as="geometry"/>
                </mxCell>
                <mxCell id="191" value="string Repairability" style="text;strokeColor=none;fillColor=none;align=left;verticalAlign=top;spacingLeft=4;spacingRight=4;overflow=hidden;rotatable=0;points=[[0,0.5],[1,0.5]];portConstraint=eastwest;comic=1;" parent="183" vertex="1">
                    <mxGeometry y="181.8181818181818" width="186" height="26" as="geometry"/>
                </mxCell>
                <mxCell id="192" value="string RepairFailedReason" style="text;strokeColor=none;fillColor=none;align=left;verticalAlign=top;spacingLeft=4;spacingRight=4;overflow=hidden;rotatable=0;points=[[0,0.5],[1,0.5]];portConstraint=eastwest;comic=1;" parent="183" vertex="1">
                    <mxGeometry y="207.8181818181818" width="186" height="26" as="geometry"/>
                </mxCell>
                <mxCell id="193" value="string Advice" style="text;strokeColor=none;fillColor=none;align=left;verticalAlign=top;spacingLeft=4;spacingRight=4;overflow=hidden;rotatable=0;points=[[0,0.5],[1,0.5]];portConstraint=eastwest;comic=1;" parent="183" vertex="1">
                    <mxGeometry y="233.8181818181818" width="186" height="26" as="geometry"/>
                </mxCell>
                <mxCell id="194" value="string RepairSource" style="text;strokeColor=none;fillColor=none;align=left;verticalAlign=top;spacingLeft=4;spacingRight=4;overflow=hidden;rotatable=0;points=[[0,0.5],[1,0.5]];portConstraint=eastwest;comic=1;" parent="183" vertex="1">
                    <mxGeometry y="259.8181818181818" width="186" height="26" as="geometry"/>
                </mxCell>
                <mxCell id="195" value="string Hint" style="text;strokeColor=none;fillColor=none;align=left;verticalAlign=top;spacingLeft=4;spacingRight=4;overflow=hidden;rotatable=0;points=[[0,0.5],[1,0.5]];portConstraint=eastwest;comic=1;" parent="183" vertex="1">
                    <mxGeometry y="285.8181818181818" width="186" height="26" as="geometry"/>
                </mxCell>
                <mxCell id="205" value="timestamp CreatedAt" style="text;strokeColor=none;fillColor=none;align=left;verticalAlign=top;spacingLeft=4;spacingRight=4;overflow=hidden;rotatable=0;points=[[0,0.5],[1,0.5]];portConstraint=eastwest;comic=1;" parent="183" vertex="1">
                    <mxGeometry y="311.8181818181818" width="186" height="25" as="geometry"/>
                </mxCell>
                <mxCell id="207" value="timestamp UpdatedAt" style="text;strokeColor=none;fillColor=none;align=left;verticalAlign=top;spacingLeft=4;spacingRight=4;overflow=hidden;rotatable=0;points=[[0,0.5],[1,0.5]];portConstraint=eastwest;comic=1;" parent="183" vertex="1">
                    <mxGeometry y="336.8181818181818" width="186" height="25" as="geometry"/>
                </mxCell>
                <mxCell id="196" style="edgeStyle=entityRelationEdgeStyle;html=1;exitX=0;exitY=0.5;exitDx=0;exitDy=0;entryX=1;entryY=0.5;entryDx=0;entryDy=0;endArrow=diamond;endFill=0;startArrow=oval;startFill=1;comic=1;" parent="1" source="185" target="3" edge="1">
                    <mxGeometry relative="1" as="geometry"/>
                </mxCell>
                <mxCell id="197" style="edgeStyle=entityRelationEdgeStyle;html=1;exitX=0;exitY=0.5;exitDx=0;exitDy=0;entryX=1;entryY=0.5;entryDx=0;entryDy=0;startArrow=oval;startFill=1;endArrow=diamond;endFill=0;comic=1;" parent="1" source="186" target="34" edge="1">
                    <mxGeometry relative="1" as="geometry"/>
                </mxCell>
            </root>
        </mxGraphModel>
    </diagram>
</mxfile>